<?xml version="1.0" standalone="no"?>
<!DOCTYPE svg PUBLIC "-//W3C//DTD SVG 20010904//EN"
 "http://www.w3.org/TR/2001/REC-SVG-20010904/DTD/svg10.dtd">
<svg version="1.0" xmlns="http://www.w3.org/2000/svg"
 width="1024.000000pt" height="1024.000000pt" viewBox="0 0 1024.000000 1024.000000"
 preserveAspectRatio="xMidYMid meet">

<g transform="translate(0.000000,1024.000000) scale(0.100000,-0.100000)"
fill="#000000" stroke="none">
<path d="M6335 9055 c-14 -80 -37 -151 -68 -205 -39 -68 -172 -200 -270 -268
l-74 -51 13 57 c18 77 17 202 -2 303 -20 109 -29 124 -38 63 -9 -70 -77 -200
-140 -270 -69 -77 -149 -136 -341 -254 -193 -119 -317 -205 -383 -268 -39 -36
-52 -44 -48 -28 16 60 27 147 24 201 l-3 60 -27 -55 c-30 -60 -74 -115 -220
-275 -105 -114 -155 -190 -191 -288 -18 -52 -22 -82 -21 -182 0 -86 5 -132 17
-163 l16 -42 -43 -88 c-24 -48 -47 -105 -50 -127 -14 -88 -17 -95 -37 -95 -35
0 -93 -30 -132 -68 -121 -118 -72 -374 104 -548 98 -97 100 -100 97 -251 -2
-142 5 -169 70 -271 l34 -54 -26 -36 c-36 -53 -48 -91 -41 -133 6 -32 1 -44
-29 -86 -48 -67 -61 -133 -47 -231 6 -42 23 -101 36 -130 30 -66 31 -74 5 -97
-48 -43 -5 -118 88 -155 53 -21 66 -32 88 -70 32 -58 123 -151 196 -201 61
-42 93 -79 103 -122 4 -15 11 -30 16 -33 12 -7 38 55 34 78 -2 10 -1 18 2 18
12 0 141 -92 182 -129 48 -45 59 -49 67 -23 19 60 42 96 83 128 l46 36 3 -26
c2 -14 7 -26 11 -26 4 0 43 27 87 59 68 52 79 57 82 40 4 -20 26 -26 37 -10
15 25 199 143 242 156 19 5 17 0 -15 -35 -53 -59 -110 -156 -129 -220 -21 -71
-20 -216 1 -297 23 -87 53 -153 70 -153 7 0 16 -7 20 -15 3 -8 -20 -103 -50
-212 -100 -354 -103 -362 -127 -368 -12 -3 -67 -14 -122 -25 -55 -12 -152 -32
-215 -45 -237 -51 -402 -69 -610 -69 l-195 0 -115 37 c-156 52 -251 63 -393
48 -62 -7 -202 -16 -312 -20 -176 -7 -205 -10 -242 -29 -51 -26 -81 -66 -117
-153 -16 -37 -53 -99 -82 -138 -41 -53 -57 -85 -64 -123 -6 -28 -11 -53 -13
-54 -2 -2 -113 -6 -246 -10 -231 -7 -247 -9 -289 -31 -24 -13 -47 -22 -49 -19
-2 2 8 30 23 63 17 36 27 73 26 96 -1 37 -668 2060 -697 2118 -8 15 -30 39
-47 53 -44 33 -58 37 -940 272 -141 37 -185 41 -227 19 -55 -28 -78 -133 -50
-226 11 -36 11 -39 -21 -65 -60 -51 -73 -116 -44 -215 9 -30 88 -238 176 -464
88 -225 200 -513 248 -640 49 -126 141 -365 205 -530 64 -165 148 -383 186
-485 39 -102 110 -286 159 -410 48 -124 120 -308 160 -409 81 -210 92 -234
130 -277 17 -20 30 -49 35 -80 14 -97 72 -174 161 -216 l62 -29 2106 1 c2286
1 2136 -3 2225 56 47 31 77 74 85 124 10 55 -18 88 -135 160 -92 56 -457 295
-468 306 -2 2 43 -12 100 -32 356 -120 618 -185 889 -220 166 -21 586 -31 662
-15 142 30 251 121 318 264 21 45 41 97 45 116 10 48 22 72 90 186 136 229
284 625 326 869 l12 69 18 -24 c26 -34 58 -140 71 -231 l11 -79 49 153 c61
196 85 307 92 438 l6 105 -38 -100 c-37 -96 -59 -145 -66 -145 -2 0 5 46 16
103 26 140 21 412 -11 532 -22 85 -78 232 -91 240 -4 3 -1 -25 6 -62 22 -100
34 -361 23 -462 -8 -75 -58 -306 -65 -299 -1 2 -7 53 -13 113 -12 107 -46 270
-74 350 -13 37 -14 26 -20 -165 -9 -281 -49 -545 -118 -780 -32 -109 -116
-339 -128 -353 -4 -4 -13 34 -19 85 -13 104 -42 225 -66 278 l-16 35 5 -47 c7
-68 -12 -306 -35 -438 -28 -159 -83 -367 -115 -431 -44 -88 -89 -135 -163
-171 l-67 -33 -215 1 c-447 1 -703 53 -1435 294 -512 168 -489 164 -573 101
-117 -89 -216 -94 -354 -21 -46 24 -119 62 -162 84 l-79 41 -121 -1 c-103 0
-132 -4 -197 -27 -113 -39 -201 -89 -395 -226 -44 -31 -107 -32 -136 -3 -39
38 -26 57 198 295 25 26 78 58 168 101 163 79 228 103 336 126 106 23 52 27
-71 5 -90 -15 -209 -56 -384 -130 -85 -36 -118 -45 -145 -41 l-35 5 28 -15 28
-15 -81 -87 c-70 -75 -123 -145 -166 -218 -10 -16 -15 -17 -51 -6 -52 16 -66
34 -66 85 0 50 13 73 110 189 99 117 141 151 236 189 45 18 123 52 172 77 74
35 83 42 50 36 -77 -13 -315 -74 -352 -89 -22 -9 -89 -66 -159 -136 -66 -65
-126 -119 -132 -119 -6 0 -26 18 -43 40 -46 57 -49 41 -4 -21 l38 -53 -29 -23
c-72 -58 -174 -89 -212 -64 -32 20 9 81 101 150 63 47 204 192 275 281 61 77
88 95 161 104 63 8 116 33 189 89 65 50 110 56 248 33 75 -12 156 -16 334 -14
264 3 204 13 590 -101 96 -29 193 -56 216 -61 22 -5 49 -12 60 -15 10 -3 -66
38 -171 90 -104 53 -179 94 -165 91 91 -18 151 -33 271 -66 207 -58 401 -98
543 -111 171 -16 453 -6 676 22 124 17 229 23 360 24 204 0 259 -9 379 -66 59
-27 63 -28 45 -8 -56 64 -206 134 -318 148 l-51 7 145 46 c80 26 154 54 165
62 18 13 15 14 -40 10 -33 -2 -110 -6 -171 -8 l-112 -4 48 47 c26 26 61 77 79
113 41 86 40 110 -2 34 -40 -75 -121 -165 -165 -183 -19 -8 -36 -13 -38 -11
-2 2 30 67 71 144 102 191 137 303 165 538 12 97 7 122 -10 55 -25 -101 -164
-455 -188 -479 -2 -3 -1 47 2 110 6 104 18 213 61 571 8 64 16 158 19 210 5
78 4 87 -5 54 -31 -118 -103 -341 -132 -414 l-35 -85 -6 40 c-3 21 -19 124
-36 228 -45 281 -55 413 -41 563 36 380 192 676 436 828 201 126 413 156 630
91 11 -4 -4 5 -34 19 -82 39 -164 55 -286 55 -132 0 -209 -17 -320 -69 -112
-52 -196 -111 -280 -196 -87 -87 -150 -178 -255 -370 -45 -82 -84 -152 -85
-153 -2 -2 -1 48 2 112 3 64 3 116 0 116 -4 0 -31 -48 -61 -107 -29 -60 -74
-135 -99 -168 -48 -64 -195 -211 -202 -203 -3 3 6 38 20 79 27 77 47 228 24
179 -7 -14 -22 -47 -35 -75 -35 -75 -114 -166 -208 -240 -46 -36 -98 -81 -115
-100 l-31 -36 0 61 c0 92 27 207 66 278 32 59 33 61 10 46 -59 -38 -122 -131
-185 -274 -9 -20 -10 -11 -6 48 11 146 96 269 255 367 45 28 110 69 145 91 35
23 66 40 68 37 3 -2 3 -21 0 -41 l-5 -37 72 70 c39 39 91 96 116 128 24 33 44
55 45 50 2 -24 11 -68 14 -71 6 -7 154 139 209 207 30 36 67 87 81 111 l26 45
-4 -57 c-2 -32 -1 -58 2 -58 14 1 116 140 142 195 76 159 64 291 -46 485 -126
222 -157 350 -159 645 -1 192 10 250 69 370 29 61 80 123 122 148 7 5 1 -15
-13 -44 -28 -54 -53 -183 -39 -196 4 -5 10 -2 12 5 9 24 161 199 200 229 323
253 734 201 923 -117 62 -103 83 -199 78 -344 -9 -213 -75 -353 -253 -532
-100 -101 -119 -115 -215 -162 -222 -109 -430 -123 -576 -37 -25 15 -47 25
-49 23 -5 -5 22 -134 30 -147 10 -18 145 -41 234 -41 129 0 241 26 391 90 l75
32 120 -54 119 -53 -50 -7 c-27 -3 -88 -12 -136 -18 -49 -7 -88 -15 -88 -20 0
-4 30 -10 68 -13 86 -7 228 -49 313 -91 66 -33 235 -142 245 -157 14 -22 -67
0 -239 65 -37 14 -70 26 -74 26 -3 0 20 -19 53 -41 32 -23 73 -53 89 -66 48
-40 315 -306 315 -315 0 -4 -28 8 -62 27 -60 32 -217 89 -225 81 -2 -2 16 -15
39 -29 24 -14 78 -61 120 -105 90 -94 170 -225 318 -521 56 -112 124 -240 151
-284 27 -44 48 -81 47 -83 -2 -1 -28 21 -58 49 -72 67 -173 155 -198 173 -15
10 -2 -26 47 -128 38 -79 87 -190 111 -248 48 -119 161 -442 156 -447 -2 -2
-41 36 -86 84 -46 49 -80 79 -76 68 19 -46 58 -188 81 -295 65 -311 90 -618
82 -995 -7 -282 -17 -409 -47 -555 -11 -52 -18 -96 -16 -97 5 -5 62 181 96
312 107 418 118 853 31 1228 -16 68 -14 97 4 67 12 -20 165 -82 165 -67 0 3
-18 42 -39 87 -22 45 -65 161 -96 258 -31 97 -69 214 -85 260 -16 45 -27 82
-24 82 2 0 28 -12 56 -26 63 -32 163 -54 248 -54 l65 0 -46 28 c-119 71 -198
147 -271 262 -20 30 -88 160 -152 288 -64 128 -139 273 -166 323 -28 49 -50
90 -50 92 0 1 34 1 76 -1 73 -4 197 19 209 38 2 4 -15 10 -39 12 -91 11 -152
50 -286 186 -171 174 -164 160 -77 154 77 -5 174 16 267 56 l45 20 -80 -1
c-145 0 -263 53 -420 188 -33 29 -83 68 -112 87 l-52 36 57 6 c31 4 75 15 97
26 l40 18 -36 1 c-91 2 -265 68 -390 147 l-38 24 78 78 c131 133 229 301 268
458 23 95 23 278 0 364 -47 176 -167 337 -315 423 -79 46 -183 87 -224 87 -32
0 -41 8 -73 65 -161 283 -451 540 -750 664 -96 40 -237 80 -307 88 -32 3 -58
8 -58 10 0 2 11 20 23 41 50 79 62 129 61 257 0 82 -5 133 -16 160 l-15 39 -7
-73 c-20 -217 -158 -422 -391 -579 -42 -28 -74 -52 -71 -52 4 0 53 25 110 55
117 63 141 66 292 40 412 -72 735 -274 957 -601 37 -53 65 -99 64 -101 -2 -1
-37 -9 -78 -17 -139 -27 -230 -67 -337 -149 -29 -22 -64 -42 -77 -43 -45 -5
-146 -67 -191 -118 -122 -134 -155 -315 -120 -645 18 -169 32 -218 114 -396
59 -130 92 -254 92 -344 0 -72 -9 -71 -33 1 -18 54 -64 126 -116 181 -59 63
-73 64 -40 4 75 -140 77 -284 6 -441 -27 -59 -116 -201 -122 -195 -2 2 3 42
11 89 7 47 13 126 13 175 l0 90 -15 -55 c-24 -94 -108 -248 -174 -322 -106
-118 -280 -234 -460 -308 -88 -36 -111 -39 -85 -10 10 11 23 20 28 20 25 0
205 94 286 150 104 71 211 166 240 214 29 47 26 48 -16 8 -77 -72 -154 -131
-245 -188 -120 -74 -230 -135 -235 -130 -3 2 5 23 17 45 11 23 32 85 46 138
35 130 29 196 -25 308 -31 62 -81 188 -81 201 0 2 16 8 35 14 153 51 282 199
333 383 22 82 22 303 0 402 -42 186 -117 324 -248 456 -79 79 -110 103 -180
137 -121 60 -193 76 -330 75 -221 -1 -416 -81 -634 -258 -30 -25 -59 -45 -64
-45 -5 0 -44 16 -86 35 -43 19 -97 40 -122 46 -25 7 -48 18 -51 27 -13 32 36
215 56 211 3 -1 51 -49 106 -108 55 -58 105 -110 112 -114 9 -5 30 19 67 76
126 197 306 321 543 378 112 27 288 22 401 -10 340 -98 587 -407 668 -836 24
-125 24 -380 1 -497 -33 -166 -112 -363 -202 -504 -41 -64 -160 -219 -209
-271 -46 -50 -17 -39 56 21 241 199 408 508 449 832 16 132 6 391 -20 509 -94
423 -357 732 -718 842 -77 23 -106 26 -233 27 -123 1 -158 -3 -230 -22 -167
-46 -321 -132 -437 -247 -84 -82 -85 -81 -57 65 43 229 149 408 338 572 102
88 221 167 456 303 102 59 221 132 265 163 79 57 223 191 264 247 21 28 22 29
16 5 -14 -51 -53 -127 -98 -185 -61 -80 -156 -158 -375 -305 -100 -68 -181
-125 -179 -127 4 -3 118 48 285 128 115 56 253 150 322 222 155 159 198 382
117 598 l-25 64 -7 -40z m-506 -490 c-6 -22 -26 -62 -43 -90 -35 -53 -78 -86
-291 -224 -293 -190 -460 -364 -556 -579 -36 -83 -48 -124 -85 -297 l-17 -80
-19 45 c-29 67 -68 207 -69 249 -1 20 -4 50 -8 66 l-7 30 -8 -35 c-5 -19 -14
-73 -20 -120 l-12 -85 -17 54 c-31 99 -18 222 36 326 20 41 134 195 143 195 3
0 3 -4 0 -8 -2 -4 -6 -51 -7 -103 -1 -51 -5 -107 -10 -124 -7 -25 -6 -27 4
-11 132 209 292 352 619 552 196 119 304 197 345 248 15 19 28 34 30 32 1 -1
-2 -20 -8 -41z m-169 -1416 c332 -54 570 -375 570 -770 0 -171 -39 -279 -142
-385 -42 -44 -79 -71 -131 -95 -64 -30 -81 -34 -157 -33 -98 0 -136 13 -275
94 -100 57 -172 109 -250 180 -63 57 -116 74 -218 68 -74 -3 -74 -3 -64 19 9
21 17 23 81 23 42 0 82 -6 99 -14 26 -14 27 -14 17 4 -12 23 -68 40 -134 40
-40 0 -47 3 -42 16 3 9 6 22 6 29 0 9 26 15 91 20 91 7 116 3 89 -16 -13 -9
-13 -11 0 -16 8 -3 29 -22 45 -42 90 -106 140 -149 194 -165 68 -20 158 -21
202 -2 19 8 50 31 69 52 26 28 28 33 10 21 -69 -48 -110 -59 -196 -55 -70 4
-90 9 -130 34 -64 39 -71 61 -12 37 63 -25 172 -23 224 4 40 21 104 85 104
103 0 4 3 17 6 27 4 10 -4 3 -18 -14 -73 -96 -178 -125 -333 -93 -42 9 -59 18
-76 41 -32 45 -10 60 33 24 48 -40 89 -55 156 -55 107 0 177 50 250 179 23 41
32 50 38 38 8 -13 11 -13 22 0 12 12 8 20 -27 53 -22 21 -79 58 -125 81 -160
79 -285 63 -345 -43 -22 -38 -30 -45 -35 -32 -21 56 44 149 120 172 129 38
305 -21 427 -145 26 -26 54 -57 62 -68 12 -15 11 -7 -4 32 -51 141 -191 258
-342 286 -111 20 -238 -18 -378 -112 -63 -43 -85 -49 -112 -28 -89 69 -7 192
197 295 239 121 469 114 659 -19 59 -41 65 -43 38 -12 -69 78 -208 138 -347
150 -194 16 -503 -117 -581 -251 -49 -84 -46 -164 7 -192 l32 -16 -28 -15
c-32 -17 -99 -19 -137 -5 -44 17 -84 59 -125 128 -44 75 -84 111 -175 154 -78
37 -144 40 -177 10 -12 -12 -22 -31 -21 -43 0 -21 1 -21 9 -2 29 74 143 58
260 -36 35 -28 97 -126 86 -136 -2 -2 -29 8 -61 22 -67 29 -140 34 -149 9 -10
-26 -7 -44 13 -88 41 -91 50 -116 42 -116 -20 0 -143 146 -171 204 -39 78 -50
177 -26 224 9 17 30 39 48 48 60 31 146 10 360 -90 l77 -36 -10 -32 c-30 -104
16 -199 96 -197 29 0 29 1 -10 15 -61 22 -75 45 -75 122 0 64 1 66 43 106 112
108 296 224 423 268 137 47 217 56 334 37z m-913 -585 c25 -14 43 -27 41 -29
-2 -1 -31 2 -66 7 -52 8 -67 7 -87 -6 -13 -9 -27 -16 -30 -16 -10 0 -5 46 7
58 21 21 88 14 135 -14z m754 -28 c38 -8 29 -52 -13 -60 -32 -6 -78 17 -78 40
0 15 37 34 55 29 6 -2 22 -6 36 -9z m-317 -57 c-5 -9 -58 -25 -128 -38 -35 -6
-48 -5 -57 6 -15 17 -19 15 81 45 76 24 86 25 97 11 7 -9 10 -20 7 -24z m-356
-9 c36 -22 50 -46 36 -60 -16 -16 -128 35 -132 59 -3 18 2 21 30 21 18 0 48
-9 66 -20z m862 -35 c0 -42 -74 -127 -137 -159 -40 -20 -142 -21 -186 -2 -51
22 -74 43 -61 56 8 8 21 5 49 -11 87 -52 189 -21 253 77 18 26 32 44 32 39 0
-5 5 -4 12 3 17 17 38 15 38 -3z m-496 -19 c-18 -14 -18 -15 9 -21 47 -12 17
-23 -86 -30 l-99 -7 4 28 c3 25 8 30 43 35 22 3 64 7 94 8 50 1 53 0 35 -13z
m-527 -63 c19 -51 81 -103 125 -103 14 0 55 13 90 30 34 16 64 26 66 21 6 -19
-18 -49 -50 -62 -18 -7 -36 -17 -39 -22 -3 -5 -25 -13 -48 -18 -44 -10 -111 9
-111 31 0 6 5 8 13 3 6 -4 1 6 -13 23 -16 20 -26 26 -28 17 -6 -25 33 -87 66
-106 32 -19 35 -19 80 -2 26 10 62 29 80 42 17 13 32 20 32 15 0 -23 -91 -91
-149 -110 -30 -10 -39 -9 -70 8 l-36 21 34 -32 c29 -27 39 -30 70 -25 20 3 55
19 78 36 24 16 43 28 43 25 0 -19 -47 -75 -78 -93 -21 -11 -50 -33 -66 -47
-15 -14 -31 -25 -36 -25 -15 0 -59 64 -76 111 -12 36 -14 66 -9 162 7 109 17
141 32 100z m513 -186 c30 -13 100 -57 155 -99 55 -41 154 -109 220 -151 66
-42 131 -87 145 -100 27 -25 80 -92 80 -102 0 -12 -352 184 -421 234 -20 14
-71 56 -114 93 -96 84 -145 108 -215 108 -45 0 -59 -5 -83 -27 l-30 -28 28 42
c15 23 37 44 48 46 61 12 135 5 187 -16z m-44 -77 c32 -16 98 -60 145 -98 47
-37 128 -92 180 -121 52 -29 130 -77 174 -105 44 -29 93 -61 108 -70 36 -22
63 -82 46 -102 -10 -12 -3 -14 41 -14 149 0 197 -107 130 -292 -85 -234 -280
-398 -578 -485 -48 -14 -96 -34 -108 -44 -24 -22 -34 -24 -34 -6 0 7 -25 17
-62 24 -109 21 -358 164 -358 206 0 9 43 12 173 13 329 2 536 66 728 226 65
55 133 148 144 198 8 37 43 50 62 24 17 -24 16 -44 -6 -139 -23 -95 -20 -111
5 -28 37 127 28 210 -27 238 -59 31 -101 17 -169 -54 -130 -136 -279 -214
-501 -263 -90 -19 -131 -22 -314 -22 -115 1 -223 5 -240 10 -59 19 -112 176
-102 300 4 52 12 77 41 124 26 43 36 69 36 100 0 93 59 195 139 239 39 22 44
22 53 7 14 -24 50 -19 74 11 17 22 31 27 80 31 54 4 63 1 92 -23 85 -72 83
-175 -5 -283 -27 -33 -31 -42 -15 -33 36 19 90 79 113 123 74 144 -93 317
-245 254 -48 -20 -46 -20 -46 4 0 24 109 80 156 80 17 0 57 -13 90 -30z
m-4180 -625 c74 -19 196 -51 272 -71 614 -159 622 -162 643 -199 20 -34 689
-2032 689 -2057 0 -9 -23 -58 -50 -109 -28 -52 -147 -287 -265 -522 -184 -366
-216 -425 -224 -405 -4 13 -20 55 -34 93 -29 81 -111 296 -279 730 -66 171
-198 513 -293 760 -339 881 -395 1024 -488 1266 -143 370 -173 475 -151 533 9
23 28 20 180 -19z m4847 -86 c-24 -41 -117 -128 -178 -166 -176 -112 -413
-161 -720 -150 -189 7 -275 21 -275 47 0 16 20 17 253 16 346 -1 512 26 687
114 67 34 182 114 214 149 28 31 40 25 19 -10z m-5035 -255 c30 -69 178 -441
231 -579 11 -27 44 -113 74 -190 88 -225 280 -721 431 -1115 41 -107 116 -301
166 -430 51 -129 96 -246 100 -260 4 -14 35 -95 67 -180 125 -326 143 -405 91
-395 -28 6 -30 10 -79 135 -125 318 -156 399 -254 650 -58 151 -130 338 -160
415 -88 228 -409 1058 -525 1360 -59 154 -127 327 -150 385 -71 176 -86 250
-58 278 20 20 30 9 66 -74z m5984 -516 c-4 -194 5 -293 50 -516 l30 -154 -23
-25 c-46 -49 -213 -173 -233 -173 -3 0 -26 30 -51 68 -49 72 -91 187 -102 279
-9 81 -21 42 -33 -110 -10 -117 -3 -229 20 -331 10 -44 11 -45 -65 54 -59 77
-146 244 -163 315 -6 22 -14 63 -18 90 l-7 50 -8 -40 c-4 -22 -8 -74 -9 -115
l-1 -75 -25 48 c-62 119 -72 292 -22 378 14 24 38 55 52 68 l26 24 0 -66 0
-67 42 46 c23 25 71 68 107 96 84 65 178 154 203 193 l20 30 -5 -63 -5 -63 46
43 c26 23 74 75 107 115 33 40 62 73 65 73 3 0 3 -78 2 -172z m-808 -636 c11
-26 55 -120 98 -210 154 -320 190 -444 186 -633 l-3 -124 -85 -3 c-169 -7
-381 29 -730 124 -142 39 -136 39 -440 33 -25 -1 -91 2 -147 6 -61 5 -152 3
-230 -4 -118 -11 -140 -11 -258 9 -128 20 -196 20 -240 -3 -18 -9 -19 -9 -6 7
15 18 99 64 141 77 61 18 -21 7 -118 -16 -119 -29 -265 -34 -350 -11 -47 12
-52 11 -52 -3 0 -9 -20 -57 -45 -108 -32 -63 -61 -105 -95 -137 -27 -25 -54
-46 -59 -46 -5 0 -24 26 -42 57 -32 56 -32 57 -17 97 73 189 103 254 124 274
29 25 18 28 -31 7 -30 -12 -41 -27 -79 -107 -24 -51 -62 -114 -85 -140 -22
-25 -41 -51 -41 -57 0 -6 14 -42 31 -79 55 -122 57 -182 4 -182 -21 0 -65 33
-65 49 0 3 -7 49 -15 101 -8 52 -15 103 -15 112 0 9 24 46 54 82 30 37 75 107
101 157 61 119 70 123 244 113 88 -4 155 -2 217 7 49 7 145 13 214 14 119 0
130 -2 230 -37 149 -53 222 -62 435 -54 99 3 209 10 245 16 113 17 378 23 476
11 132 -16 245 -54 319 -108 64 -46 69 -48 56 -25 -18 33 -105 106 -168 139
-32 18 -97 43 -143 57 l-85 25 96 0 c162 1 260 -34 363 -129 46 -42 48 -43 33
-14 -32 63 -99 135 -153 165 -43 24 -53 35 -48 48 22 47 105 309 126 393 13
54 25 98 28 98 3 0 14 -21 24 -48z m914 -229 c37 -174 45 -397 19 -576 -8 -53
-16 -100 -19 -102 -18 -18 -354 -65 -463 -65 l-51 0 0 123 c-1 67 -7 151 -13
187 -16 81 -74 258 -107 323 -32 62 -48 105 -36 92 59 -61 199 -243 226 -294
43 -83 90 -223 107 -321 l13 -75 7 45 c9 52 3 147 -16 240 -15 71 -62 209 -76
225 -11 11 -11 74 0 130 7 39 7 39 20 17 32 -60 129 -79 205 -42 23 11 68 46
101 78 33 33 63 60 67 60 3 1 11 -19 16 -45z m-2899 -642 c24 -16 -35 -44
-107 -51 -37 -3 -82 -14 -99 -23 l-33 -18 22 45 c13 27 30 47 42 49 40 8 161
7 175 -2z m-315 -204 c-22 -24 -49 -56 -61 -71 -12 -16 -27 -26 -34 -24 -7 2
15 32 53 71 72 74 103 92 42 24z m-900 -137 c-19 -80 -64 -262 -99 -405 -36
-143 -66 -274 -67 -292 -4 -61 33 -78 198 -89 100 -7 102 -6 117 17 20 31 47
248 104 844 6 61 12 80 23 80 13 0 15 -59 18 -461 2 -453 3 -461 23 -480 18
-16 40 -20 144 -22 116 -3 125 -2 145 18 20 20 22 28 15 79 -4 31 -10 96 -14
144 l-6 88 35 -3 35 -3 26 -120 c32 -153 46 -193 71 -206 11 -6 98 -13 193
-16 155 -5 177 -4 201 11 23 16 26 22 20 58 -4 22 -18 62 -32 90 -14 27 -24
52 -22 53 2 2 28 -4 58 -13 53 -16 56 -18 87 -83 18 -36 45 -78 59 -93 l27
-26 194 0 c115 0 202 4 214 10 30 17 23 51 -31 136 -27 43 -58 95 -69 115 -11
20 -36 57 -55 82 -32 42 -33 46 -18 60 33 28 62 39 76 28 7 -6 64 -90 127
-187 63 -97 128 -192 145 -212 l30 -36 142 -4 c120 -4 145 -2 167 12 42 27 33
62 -38 157 -101 135 -137 183 -155 204 -32 38 -72 95 -67 95 3 0 66 -31 139
-69 159 -81 237 -100 333 -81 57 12 163 59 194 86 8 8 24 14 35 14 22 0 236
-87 244 -99 7 -10 442 -305 592 -401 65 -41 118 -79 118 -83 0 -4 -44 -5 -97
-2 -648 39 -1009 58 -1378 75 -242 11 -532 25 -645 30 -590 29 -830 41 -980
50 -91 6 -208 13 -260 16 -52 3 -208 16 -347 30 -208 20 -261 22 -300 13 -26
-6 -118 -46 -203 -88 -85 -41 -158 -77 -162 -79 -24 -11 5 65 118 305 69 147
180 375 246 506 107 211 122 237 144 237 17 0 24 -6 24 -19 0 -11 -61 -194
-136 -408 -167 -477 -159 -452 -150 -460 13 -14 73 29 95 67 12 21 52 125 90
232 186 522 223 624 233 635 11 13 49 22 60 14 3 -4 -9 -71 -28 -151z m196
108 c0 -110 -76 -816 -90 -838 -6 -9 -21 -10 -56 -4 -45 8 -49 11 -52 41 -4
39 36 272 94 548 66 315 63 305 85 305 16 0 19 -8 19 -52z m253 32 c5 -18 0
-20 -39 -20 -30 0 -44 4 -44 13 0 21 10 27 46 27 23 0 33 -5 37 -20z m7 -55
c0 -11 -12 -15 -45 -15 -33 0 -45 4 -45 15 0 11 12 15 45 15 33 0 45 -4 45
-15z m13 -65 c5 -18 0 -20 -49 -20 -47 0 -54 2 -54 20 0 17 7 20 49 20 40 0
50 -3 54 -20z m7 -55 c0 -11 -13 -15 -54 -15 -51 0 -74 9 -59 24 3 3 30 6 60
6 40 0 53 -4 53 -15z m98 -48 c19 -53 15 -91 -13 -117 -18 -17 -25 -19 -26 -9
0 8 -4 47 -8 87 -6 69 -6 72 14 72 15 0 25 -10 33 -33z m132 28 c0 -6 -47 -55
-53 -55 -12 0 -15 31 -3 42 12 12 56 22 56 13z m-230 -30 c0 -12 -13 -15 -55
-15 -42 0 -55 3 -55 15 0 12 13 15 55 15 42 0 55 -3 55 -15z m10 -60 c0 -24
-2 -25 -65 -25 -58 0 -65 2 -65 19 0 21 18 27 88 30 39 1 42 -1 42 -24z m10
-79 c0 -20 -4 -21 -70 -18 -60 3 -70 6 -70 22 0 21 35 28 103 21 30 -2 37 -7
37 -25z m-12 -68 c-3 -21 -9 -23 -65 -26 -62 -3 -63 -2 -63 23 0 24 2 25 66
25 62 0 65 -1 62 -22z m-8 -62 c0 -8 3 -21 6 -30 5 -13 -1 -16 -29 -16 -62 0
-97 11 -97 31 0 13 9 19 38 22 75 8 82 7 82 -7z m1445 -6 c-4 -6 -48 -9 -103
-9 -66 1 -87 4 -67 9 46 12 177 12 170 0z m45 -45 c7 -9 10 -19 6 -22 -4 -4
-51 -9 -105 -11 -85 -4 -99 -2 -105 13 -11 30 3 35 98 35 72 0 97 -4 106 -15z
m-2029 -193 c-11 -108 -21 -136 -43 -114 -8 8 -5 42 15 140 15 70 28 139 29
153 1 13 3 2 5 -25 2 -27 -1 -96 -6 -154z m576 144 c15 -13 25 -28 21 -32 -11
-11 -102 -17 -142 -10 -32 6 -36 11 -36 36 l0 30 64 0 c54 0 70 -4 93 -24z
m327 8 c8 -21 10 -20 -46 -28 -38 -6 -48 -4 -48 7 0 8 15 19 33 25 46 14 54
14 61 -4z m1199 -50 c11 -14 17 -28 14 -31 -3 -3 -53 -7 -110 -10 l-105 -6
-16 31 c-9 17 -16 33 -16 37 0 3 48 5 108 5 103 -1 108 -2 125 -26z m-482 -6
c11 -11 19 -24 19 -28 0 -9 -140 -19 -153 -12 -13 7 10 25 56 44 54 22 56 22
78 -4z m-680 -19 c9 -18 5 -19 -61 -19 -63 0 -70 2 -70 19 0 17 8 20 48 23 58
4 70 1 83 -23z m-331 -54 l0 -45 -79 0 c-44 0 -86 3 -95 6 -16 6 -23 64 -9 77
3 4 46 7 95 7 l88 0 0 -45z m1564 -20 c45 -41 36 -46 -91 -43 l-117 3 -19 33
-19 32 110 0 c102 0 111 -2 136 -25z m-1061 0 c9 -4 17 -16 17 -26 0 -19 -8
-19 -152 -17 l-153 3 -3 29 -4 29 139 -5 c76 -3 146 -9 156 -13z m553 7 c6 -4
16 -17 23 -29 l12 -23 -160 0 c-90 0 -162 4 -166 9 -3 6 14 19 37 30 33 15 66
19 143 20 55 0 105 -3 111 -7z m-1042 -94 c3 -13 6 -36 6 -51 l0 -28 -102 3
-103 3 -3 48 -3 47 99 0 c95 0 100 -1 106 -22z m1596 2 c34 -9 80 -61 80 -88
0 -9 -34 -12 -120 -12 l-120 0 -30 47 c-28 43 -29 48 -13 55 27 10 163 9 203
-2z m-1045 -30 c19 -38 19 -56 -2 -64 -29 -11 -302 6 -313 20 -6 6 -15 26 -20
43 l-9 31 164 0 164 0 16 -30z m579 5 c9 -13 17 -35 19 -47 2 -23 2 -23 -160
-26 -155 -2 -163 -2 -182 19 -11 12 -24 35 -30 50 l-10 29 173 0 174 0 16 -25z
m-1569 -170 c414 -34 390 -32 955 -60 894 -44 1499 -75 1760 -90 399 -22 772
-38 822 -34 54 5 50 -6 -17 -50 l-40 -26 -2088 -3 -2089 -2 -36 21 c-48 29
-82 60 -82 74 0 13 303 172 361 189 44 13 72 12 454 -19z"/>
<path d="M5876 6217 c-25 -66 -79 -122 -151 -158 -74 -36 -146 -41 -210 -15
-62 26 -51 11 14 -18 68 -30 109 -32 180 -9 90 29 165 114 186 211 9 45 1 40
-19 -11z"/>
<path d="M5010 5861 c-7 -18 -30 -39 -60 -55 -68 -37 -107 -87 -121 -155 -6
-31 -15 -63 -20 -71 -10 -17 -12 7 -9 103 2 63 -25 121 -60 132 -28 9 -37 0
-44 -40 -8 -40 2 -62 52 -120 33 -38 34 -42 28 -100 -3 -33 -8 -87 -11 -120
-4 -56 -4 -57 6 -20 40 161 52 179 175 261 46 31 93 68 104 84 24 34 26 92 4
114 -22 22 -30 20 -44 -13z"/>
<path d="M5490 5701 c0 -5 7 -14 15 -21 18 -15 42 1 31 19 -8 13 -46 15 -46 2z"/>
<path d="M5654 5639 c-8 -14 21 -43 35 -35 8 5 8 13 1 27 -12 21 -25 25 -36 8z"/>
<path d="M5382 5574 c2 -11 11 -20 22 -22 13 -3 17 1 14 14 -2 11 -11 20 -22
22 -13 3 -17 -1 -14 -14z"/>
<path d="M5577 5547 c-3 -8 -2 -20 3 -27 11 -18 42 -4 38 17 -4 22 -34 29 -41
10z"/>
<path d="M5485 5491 c-8 -15 3 -31 21 -31 9 0 14 7 12 17 -4 20 -24 28 -33 14z"/>
<path d="M5340 5434 c0 -15 22 -44 31 -39 18 12 10 45 -11 45 -11 0 -20 -3
-20 -6z"/>
<path d="M5886 5195 c-9 -26 -7 -32 5 -12 6 10 9 21 6 23 -2 3 -7 -2 -11 -11z"/>
<path d="M2968 1769 c-21 -12 -24 -69 -6 -87 17 -17 73 -15 88 3 7 8 13 26 13
40 0 48 -49 71 -95 44z"/>
<path d="M3206 1758 c-21 -30 -20 -51 4 -73 23 -20 63 -23 85 -5 17 14 20 53
5 81 -15 28 -74 26 -94 -3z"/>
<path d="M7492 7250 c-95 -25 -183 -73 -252 -137 -54 -50 -131 -166 -166 -249
-9 -21 -28 -57 -43 -79 -46 -69 -46 -68 -12 -50 52 27 110 93 117 133 18 112
62 189 141 247 105 76 277 119 390 96 312 -62 457 -399 296 -691 -47 -87 -102
-155 -171 -213 -119 -101 -332 -174 -476 -165 -70 5 -71 5 -36 -10 48 -20 193
-18 267 3 190 55 362 206 454 400 87 182 90 371 9 509 -111 190 -297 264 -518
206z"/>
<path d="M7453 7125 c-76 -21 -129 -51 -184 -102 -41 -39 -53 -58 -76 -131
-34 -104 -79 -159 -157 -193 -31 -13 -56 -27 -56 -31 0 -4 26 -22 58 -41 77
-45 102 -84 102 -156 -1 -64 -14 -94 -56 -122 -38 -25 -61 -24 -120 6 l-49 26
60 -55 c70 -64 120 -80 199 -65 105 19 184 81 206 159 16 56 11 141 -9 186
-23 52 -83 110 -128 125 -44 14 -38 33 13 37 50 4 104 -19 155 -65 57 -52 81
-104 87 -189 4 -62 1 -80 -21 -128 -14 -31 -41 -70 -59 -87 -30 -29 -31 -30
-5 -13 67 42 127 157 127 244 0 107 -77 232 -178 290 -34 19 -62 38 -62 41 -1
20 112 116 168 142 112 52 251 39 334 -32 l42 -36 -19 33 c-80 137 -226 198
-372 157z"/>
<path d="M7828 6664 c-10 -126 -64 -236 -169 -343 l-63 -64 44 23 c71 36 154
122 186 193 23 51 28 76 28 142 1 109 -19 144 -26 49z"/>
<path d="M4190 3054 c274 -90 337 -98 530 -70 l85 13 -195 5 c-166 4 -211 9
-303 31 -95 23 -162 35 -117 21z"/>
<path d="M4015 2904 c-27 -8 -85 -17 -128 -21 -43 -3 -80 -10 -83 -15 -12 -18
227 20 265 42 22 13 5 11 -54 -6z"/>
<path d="M7802 2600 c-9 -111 -81 -269 -153 -334 -80 -72 -160 -95 -399 -112
l-105 -8 85 -13 c116 -18 295 -21 347 -5 56 17 121 67 159 123 42 63 77 210
72 304 -2 39 -5 59 -6 45z"/>
</g>
</svg>
